<svg width="35" height="35" viewBox="0 0 35 35" fill="none" xmlns="http://www.w3.org/2000/svg">
<path d="M14.67 24.252C13.098 24.252 11.862 23.658 10.962 22.47C10.074 21.27 9.63 19.68 9.63 17.7C9.63 15.72 10.074 14.136 10.962 12.948C11.862 11.748 13.098 11.148 14.67 11.148C16.254 11.148 17.49 11.748 18.378 12.948C19.266 14.136 19.71 15.72 19.71 17.7C19.71 19.68 19.266 21.27 18.378 22.47C17.49 23.658 16.254 24.252 14.67 24.252ZM12.762 20.778C13.194 21.474 13.83 21.822 14.67 21.822C15.51 21.822 16.146 21.468 16.578 20.76C17.022 20.052 17.244 19.032 17.244 17.7C17.244 16.356 17.022 15.33 16.578 14.622C16.146 13.914 15.51 13.56 14.67 13.56C13.83 13.56 13.194 13.914 12.762 14.622C12.33 15.33 12.114 16.356 12.114 17.7C12.114 19.044 12.33 20.07 12.762 20.778ZM23.4963 11.4H25.6563V24H23.1723V14.028L20.7963 14.694L20.1843 12.57L23.4963 11.4Z" fill="#0FA958"/>
<rect x="0.5" y="0.5" width="34" height="34" rx="9.5" stroke="#D9D9D9"/>
</svg>
