<svg width="35" height="35" viewBox="0 0 35 35" fill="none" xmlns="http://www.w3.org/2000/svg">
<path d="M12.67 24.252C11.098 24.252 9.862 23.658 8.962 22.47C8.074 21.27 7.63 19.68 7.63 17.7C7.63 15.72 8.074 14.136 8.962 12.948C9.862 11.748 11.098 11.148 12.67 11.148C14.254 11.148 15.49 11.748 16.378 12.948C17.266 14.136 17.71 15.72 17.71 17.7C17.71 19.68 17.266 21.27 16.378 22.47C15.49 23.658 14.254 24.252 12.67 24.252ZM10.762 20.778C11.194 21.474 11.83 21.822 12.67 21.822C13.51 21.822 14.146 21.468 14.578 20.76C15.022 20.052 15.244 19.032 15.244 17.7C15.244 16.356 15.022 15.33 14.578 14.622C14.146 13.914 13.51 13.56 12.67 13.56C11.83 13.56 11.194 13.914 10.762 14.622C10.33 15.33 10.114 16.356 10.114 17.7C10.114 19.044 10.33 20.07 10.762 20.778ZM28.5259 19.554V21.858H27.1759V24H24.6739V21.858H18.7159V19.554L22.9099 11.4H25.5739L21.3979 19.554H24.6739V16.566H27.1759V19.554H28.5259Z" fill="#0FA958"/>
<rect x="0.5" y="0.5" width="34" height="34" rx="9.5" stroke="#D9D9D9"/>
</svg>
