<svg width="35" height="35" viewBox="0 0 35 35" fill="none" xmlns="http://www.w3.org/2000/svg">
<path d="M12.67 24.252C11.098 24.252 9.862 23.658 8.962 22.47C8.074 21.27 7.63 19.68 7.63 17.7C7.63 15.72 8.074 14.136 8.962 12.948C9.862 11.748 11.098 11.148 12.67 11.148C14.254 11.148 15.49 11.748 16.378 12.948C17.266 14.136 17.71 15.72 17.71 17.7C17.71 19.68 17.266 21.27 16.378 22.47C15.49 23.658 14.254 24.252 12.67 24.252ZM10.762 20.778C11.194 21.474 11.83 21.822 12.67 21.822C13.51 21.822 14.146 21.468 14.578 20.76C15.022 20.052 15.244 19.032 15.244 17.7C15.244 16.356 15.022 15.33 14.578 14.622C14.146 13.914 13.51 13.56 12.67 13.56C11.83 13.56 11.194 13.914 10.762 14.622C10.33 15.33 10.114 16.356 10.114 17.7C10.114 19.044 10.33 20.07 10.762 20.778ZM18.5075 24V22.146L22.8095 17.718C23.7695 16.71 24.2495 15.87 24.2495 15.198C24.2495 14.706 24.0935 14.31 23.7815 14.01C23.4815 13.71 23.0915 13.56 22.6115 13.56C21.6635 13.56 20.9615 14.052 20.5055 15.036L18.4175 13.812C18.8135 12.948 19.3835 12.288 20.1275 11.832C20.8715 11.376 21.6875 11.148 22.5755 11.148C23.7155 11.148 24.6935 11.508 25.5095 12.228C26.3255 12.936 26.7335 13.896 26.7335 15.108C26.7335 16.416 26.0435 17.76 24.6635 19.14L22.1975 21.606H26.9315V24H18.5075Z" fill="#0FA958"/>
<rect x="0.5" y="0.5" width="34" height="34" rx="9.5" stroke="#D9D9D9"/>
</svg>
