<svg width="20" height="20" viewBox="0 0 20 20" fill="none" xmlns="http://www.w3.org/2000/svg">
<path d="M7.62704 4.50797C8.68288 2.61464 9.21038 1.66797 9.99954 1.66797C10.7887 1.66797 11.3162 2.61464 12.372 4.50797L12.6454 4.99797C12.9454 5.5363 13.0954 5.80547 13.3287 5.98297C13.562 6.16047 13.8537 6.2263 14.437 6.35797L14.967 6.47797C17.017 6.94213 18.0412 7.1738 18.2854 7.95797C18.5287 8.7413 17.8304 9.5588 16.4329 11.193L16.0712 11.6155C15.6745 12.0796 15.4754 12.3121 15.3862 12.5988C15.297 12.8863 15.327 13.1963 15.387 13.8155L15.442 14.3796C15.6529 16.5605 15.7587 17.6505 15.1204 18.1346C14.482 18.6196 13.522 18.1771 11.6037 17.2938L11.1062 17.0655C10.5612 16.8138 10.2887 16.6888 9.99954 16.6888C9.71038 16.6888 9.43788 16.8138 8.89204 17.0655L8.39621 17.2938C6.47704 18.1771 5.51704 18.6188 4.87954 18.1355C4.24038 17.6505 4.34621 16.5605 4.55704 14.3796L4.61204 13.8163C4.67204 13.1963 4.70204 12.8863 4.61204 12.5996C4.52371 12.3121 4.32454 12.0796 3.92788 11.6163L3.56621 11.193C2.16871 9.55963 1.47038 8.74214 1.71371 7.95797C1.95788 7.1738 2.98288 6.9413 5.03288 6.47797L5.56288 6.35797C6.14538 6.2263 6.43621 6.16047 6.67038 5.98297C6.90371 5.80547 7.05371 5.5363 7.35371 4.99797L7.62704 4.50797Z" fill="#4ECB71"/>
</svg>
