<svg width="35" height="35" viewBox="0 0 35 35" fill="none" xmlns="http://www.w3.org/2000/svg">
<path d="M12.67 24.252C11.098 24.252 9.862 23.658 8.962 22.47C8.074 21.27 7.63 19.68 7.63 17.7C7.63 15.72 8.074 14.136 8.962 12.948C9.862 11.748 11.098 11.148 12.67 11.148C14.254 11.148 15.49 11.748 16.378 12.948C17.266 14.136 17.71 15.72 17.71 17.7C17.71 19.68 17.266 21.27 16.378 22.47C15.49 23.658 14.254 24.252 12.67 24.252ZM10.762 20.778C11.194 21.474 11.83 21.822 12.67 21.822C13.51 21.822 14.146 21.468 14.578 20.76C15.022 20.052 15.244 19.032 15.244 17.7C15.244 16.356 15.022 15.33 14.578 14.622C14.146 13.914 13.51 13.56 12.67 13.56C11.83 13.56 11.194 13.914 10.762 14.622C10.33 15.33 10.114 16.356 10.114 17.7C10.114 19.044 10.33 20.07 10.762 20.778ZM24.1821 16.512C25.0341 16.764 25.7241 17.208 26.2521 17.844C26.7921 18.468 27.0621 19.224 27.0621 20.112C27.0621 21.408 26.6241 22.422 25.7481 23.154C24.8841 23.886 23.8221 24.252 22.5621 24.252C21.5781 24.252 20.6961 24.03 19.9161 23.586C19.1481 23.13 18.5901 22.464 18.2421 21.588L20.3661 20.364C20.6781 21.336 21.4101 21.822 22.5621 21.822C23.1981 21.822 23.6901 21.672 24.0381 21.372C24.3981 21.06 24.5781 20.64 24.5781 20.112C24.5781 19.596 24.3981 19.182 24.0381 18.87C23.6901 18.558 23.1981 18.402 22.5621 18.402H22.0221L21.0681 16.962L23.5521 13.722H18.6201V11.4H26.5401V13.452L24.1821 16.512Z" fill="#0FA958"/>
<rect x="0.5" y="0.5" width="34" height="34" rx="9.5" stroke="#D9D9D9"/>
</svg>
