<svg width="20" height="20" viewBox="0 0 20 20" fill="none" xmlns="http://www.w3.org/2000/svg">
<path d="M8.19616 1.69652C8.28949 1.72819 8.38116 1.76652 8.47032 1.80986L9.53949 2.33652C9.6826 2.40696 9.83998 2.44359 9.99949 2.44359C10.159 2.44359 10.3164 2.40696 10.4595 2.33652L11.5287 1.80986C12.0739 1.54165 12.7034 1.50099 13.2786 1.69679C13.8538 1.8926 14.3278 2.30886 14.5962 2.85402L14.6578 2.98902L14.7103 3.12819L15.0937 4.25569C15.1978 4.56236 15.4387 4.80236 15.7445 4.90652L16.8728 5.28986C17.1815 5.39486 17.4642 5.56452 17.702 5.78749C17.9398 6.01045 18.1274 6.2816 18.2521 6.58283C18.3768 6.88405 18.4358 7.20841 18.4251 7.53426C18.4145 7.8601 18.3344 8.17992 18.1903 8.47236L17.6645 9.54152C17.5941 9.68464 17.5574 9.84201 17.5574 10.0015C17.5574 10.161 17.5941 10.3184 17.6645 10.4615L18.1903 11.5307C18.3343 11.8231 18.4142 12.1428 18.4248 12.4686C18.4354 12.7943 18.3763 13.1186 18.2517 13.4197C18.127 13.7208 17.9395 13.9919 17.7017 14.2148C17.4639 14.4377 17.1814 14.6073 16.8728 14.7124L15.7445 15.0957C15.5936 15.1472 15.4565 15.2326 15.3438 15.3455C15.2311 15.4583 15.1458 15.5955 15.0945 15.7465L14.7103 16.8749C14.6053 17.1834 14.4357 17.466 14.2128 17.7037C13.9899 17.9415 13.7188 18.129 13.4177 18.2537C13.1165 18.3784 12.7923 18.4374 12.4665 18.4268C12.1408 18.4163 11.8211 18.3363 11.5287 18.1924L10.4595 17.6665C10.3164 17.5961 10.159 17.5595 9.99949 17.5595C9.83998 17.5595 9.6826 17.5961 9.53949 17.6665L8.47032 18.1924C8.17793 18.3363 7.85818 18.4163 7.53244 18.4268C7.20669 18.4374 6.88244 18.3784 6.58131 18.2537C6.28019 18.129 6.00913 17.9415 5.78622 17.7037C5.56331 17.466 5.39369 17.1834 5.28866 16.8749L4.90532 15.7465C4.85375 15.5955 4.76817 15.4583 4.65518 15.3456C4.54219 15.2329 4.40481 15.1477 4.25366 15.0965L3.12616 14.7124C2.81755 14.6074 2.53489 14.4379 2.29703 14.215C2.05917 13.9921 1.87159 13.7211 1.74681 13.4199C1.62204 13.1188 1.56294 12.7945 1.57346 12.4687C1.58398 12.1429 1.66388 11.8231 1.80782 11.5307L2.33449 10.4615C2.40493 10.3184 2.44156 10.161 2.44156 10.0015C2.44156 9.84201 2.40493 9.68464 2.33449 9.54152L1.80782 8.47236C1.66388 8.1799 1.58398 7.86011 1.57346 7.53432C1.56294 7.20853 1.62204 6.88425 1.74681 6.58311C1.87159 6.28198 2.05917 6.01093 2.29703 5.78806C2.53489 5.56519 2.81755 5.39563 3.12616 5.29069L4.25366 4.90736C4.40484 4.85589 4.54216 4.77036 4.65501 4.65736C4.76786 4.54436 4.85322 4.40693 4.90449 4.25569L5.28783 3.12819C5.38473 2.84318 5.53683 2.58006 5.73545 2.35385C5.93407 2.12764 6.17531 1.94278 6.44539 1.80983C6.71547 1.67688 7.0091 1.59845 7.3095 1.579C7.6099 1.55956 7.91119 1.59949 8.19616 1.69652ZM12.8903 7.47569L8.37449 11.9924L6.72949 10.0174C6.67769 9.95207 6.61336 9.89781 6.54028 9.85775C6.46719 9.8177 6.38684 9.79266 6.30394 9.78412C6.22104 9.77558 6.13727 9.78371 6.05756 9.80802C5.97784 9.83233 5.9038 9.87234 5.83977 9.92569C5.77575 9.97905 5.72305 10.0447 5.68476 10.1187C5.64647 10.1927 5.62337 10.2736 5.61682 10.3567C5.61027 10.4398 5.62041 10.5234 5.64662 10.6025C5.67284 10.6816 5.71462 10.7546 5.76949 10.8174L7.85282 13.3174C7.90837 13.3841 7.9772 13.4384 8.05493 13.4771C8.13266 13.5157 8.21759 13.5377 8.30429 13.5417C8.391 13.5457 8.47759 13.5316 8.55854 13.5003C8.6395 13.469 8.71304 13.4212 8.77449 13.3599L13.7745 8.35986C13.8359 8.30264 13.8851 8.23364 13.9193 8.15697C13.9535 8.0803 13.9718 7.99754 13.9733 7.91362C13.9748 7.8297 13.9594 7.74635 13.9279 7.66852C13.8965 7.5907 13.8497 7.52001 13.7904 7.46066C13.731 7.40131 13.6603 7.35452 13.5825 7.32309C13.5047 7.29165 13.4213 7.27622 13.3374 7.2777C13.2535 7.27918 13.1707 7.29754 13.094 7.3317C13.0174 7.36586 12.9484 7.41512 12.8912 7.47652L12.8903 7.47569Z" fill="#008AFF"/>
</svg>
